PathFileType	4	(X/Y/Z)	C:/Users/beibeiliu/ov580/test_trc\sequence.30_training_dense_right.trc
DataRate	CameraRate	NumFrames	NumMarkers	Units	OrigDataRate	OrigDataStartFrame	OrigNumFrames
120	120	14	19	mm	120	1	88
Frame#	Time	ThumbCMC			ThumbMCP			ThumbIP			ThumbTip			IndexMCP			IndexPIP			IndexTip			MiddleMCP			MiddlePIP			MiddleTip			RingMCP			RingPIP			RingTip			PinkyMCP			PinkyPIP			PinkyTip			BackHand1			BackHand2			BackHand3	
		X0	Y0	Z0	X1	Y1	Z1	X2	Y2	Z2	X3	Y3	Z3	X4	Y4	Z4	X5	Y5	Z5	X6	Y6	Z6	X7	Y7	Z7	X8	Y8	Z8	X9	Y9	Z9	X10	Y10	Z10	X11	Y11	Z11	X12	Y12	Z12	X13	Y13	Z13	X14	Y14	Z14	X15	Y15	Z15	X16	Y16	Z16	X17	Y17	Z17	X18	Y18	Z18	
0	0	55.9447	52.3954	36.3738	35.7966	36.3602	16.1968	30.6301	27.9584	-6.65083	28.9932	19.6438	-25.6237	54.7155	59.6303	-31.3249	49.4156	47.0219	-55.9453	41.8951	34.3352	-71.0919	78.4566	56.1528	-39.5639	71.8972	44.3164	-62.6525	71.7667	22.8266	-81.7974	95.4369	50.3471	-35.081	93.4838	38.5364	-57.2087	91.9467	22.0121	-74.4279	113.994	46.2479	-23.3336	119.13	39.5186	-41.1048	123.886	33.4687	-56.7978	98.6473	66.7518	8.87246	100.494	73.0842	35.8957	74.5206	73.9057	24.946	
1	0.00833333	53.0052	53.0834	30.9539	39.7376	37.5722	16.2533	32.3284	29.2526	-9.05621	25.691	19.0762	-24.359	54.4019	59.6066	-31.7894	47.0531	48.9966	-56.4396	45.3133	31.5896	-73.9664	74.3988	57.3512	-38.7888	70.1826	42.6741	-66.1117	70.2265	22.4839	-83.6579	92.2796	51.3119	-37.8255	97.3004	39.9759	-55.344	89.7024	23.9341	-74.6444	112.456	46.3953	-23.3022	118.304	39.0195	-42.9463	118.036	31.6726	-61.0213	97.8344	66.8342	8.41036	100.176	72.5213	34.8457	73.1243	75.5859	21.243	
2	0.0166667	51.8283	53.2994	35.7468	39.7117	38.0223	13.0751	30.3979	29.6235	-8.85582	27.9044	21.7113	-26.3229	54.2585	59.986	-32.8347	46.3296	51.0453	-53.5466	45.8048	34.2388	-72.2712	73.446	56.6107	-44.2116	69.4839	43.7374	-66.236	69.8601	21.7896	-84.624	94.6594	51.5263	-37.0542	92.6498	41.1668	-55.4786	89.9724	24.4405	-73.6256	111.969	47.4461	-25.7807	116.478	38.6162	-40.8812	117.027	32.895	-57.9502	98.0984	67.5826	6.66601	102.391	73.5119	31.216	74.855	76.4526	21.9954	
3	0.025	50.0801	52.7904	32.959	36.5139	37.3574	15.6712	30.3572	30.1111	-10.3988	25.242	20.6032	-27.568	51.6934	60.628	-30.8596	45.6178	48.4047	-56.916	46.3171	33.1547	-73.6245	76.9754	56.8256	-42.4499	72.6151	42.2857	-67.1182	71.8106	22.2125	-82.9558	92.3621	52.156	-38.9701	92.5739	38.9241	-59.4029	87.4883	23.295	-73.6453	111.034	47.1711	-24.8554	114.115	39.0616	-39.6151	116.519	29.2448	-61.4376	94.8658	69.3597	6.91589	100.565	71.098	34.3711	70.0584	75.0673	19.2758	
4	0.0333333	49.8667	53.7386	31.9567	38.2256	38.6539	14.6526	29.7235	31.8155	-8.7404	25.0401	23.1918	-27.8066	54.3856	62.1653	-34.336	47.039	54.2372	-54.7553	47.6252	37.9202	-73.6609	73.6453	59.6023	-38.6807	70.864	43.7495	-66.4846	68.8453	26.126	-82.5616	92.611	52.2829	-33.8144	89.1104	38.1114	-59.1982	85.6724	20.6501	-73.9066	112.881	46.1889	-22.2793	114.275	36.6599	-44.8242	113.588	24.7963	-61.1587	97.2162	68.0356	10.4683	104.926	71.6098	34.3388	77.347	74.4104	23.0024	
5	0.0416667	54.3058	56.7042	29.863	42.8544	43.2127	13.0419	32.95	37.0096	-4.99862	24.4421	30.7577	-23.9524	57.3402	68.2497	-32.6696	56.3346	60.8079	-57.7562	45.4368	49.0347	-78.2786	80.8373	62.0066	-39.5117	77.279	50.2456	-65.4303	69.9357	32.142	-82.5793	94.5313	52.3747	-37.9079	93.3673	37.7933	-57.6177	81.5062	19.7296	-66.6984	116.826	43.3094	-26.4931	113.86	35.6317	-43.357	109.153	16.6509	-61.5635	106.142	65.3846	6.97935	107.122	68.7256	31.7976	82.5253	75.5024	18.9764	
6	0.05	62.5316	59.8218	29.806	43.5388	49.7395	14.3762	30.4155	45.6451	-6.78872	20.7902	39.6551	-21.7399	66.6767	74.4907	-32.8784	58.99	72.0997	-57.8173	57.3373	61.9338	-78.8097	84.6529	66.9151	-40.7974	79.5226	56.6684	-66.1602	71.5094	37.9753	-85.3527	102.325	50.4619	-39.273	93.0492	33.2074	-56.5684	78.3077	13.2257	-56.8326	117.039	41.6061	-25.5477	112.675	25.4673	-45.3547	94.3491	8.49757	-51.6126	110.455	65.4659	9.54003	112.472	66.087	33.8471	88.7854	76.3152	19.7569	
7	0.0583333	67.6972	62.0504	33.8987	48.4361	54.258	14.4194	34.7878	51.9426	-4.54991	21.832	49.5241	-20.684	71.7456	79.4841	-32.8542	66.9405	75.3009	-59.0355	59.3597	71.0248	-80.8844	90.7881	66.5088	-43.1851	82.0753	59.1336	-67.8216	72.2973	40.043	-89.6542	102.807	45.3081	-40.8561	87.761	25.8006	-51.8657	69.7997	13.3135	-39.0755	116.904	36.6141	-27.1331	103.692	22.3173	-42.5742	81.3009	7.31023	-33.5961	115.948	63.6744	3.76886	120.425	62.1017	34.1679	95.5089	76.9699	22.5369	
8	0.0666667	74.1419	63.7349	27.7607	51.7633	57.9155	14.7494	39.2991	56.8273	-2.48527	23.6438	56.4567	-16.0569	77.7156	78.1532	-35.4107	70.4297	77.9959	-57.8878	64.9197	73.6976	-76.7431	94.2434	63.7708	-43.4635	81.878	54.8546	-69.8962	70.7875	43.5098	-84.823	99.5519	42.7922	-37.5954	80.2095	23.9448	-43.6428	67.3723	14.5083	-17.55	111.091	27.1044	-29.5814	88.6755	15.6428	-31.7722	77.0854	10.8659	-11.2073	123.236	56.1433	2.30178	126.437	55.1913	28.6445	104.155	72.3019	21.078	
9	0.075	77.8082	69.132	31.0094	54.7369	64.1909	13.1421	41.1917	65.7016	-2.77319	26.0763	68.5506	-16.7881	84.8424	75.1126	-38.3308	74.4791	76.5921	-56.3914	66.4479	71.031	-80.6753	92.4233	60.3379	-47.482	78.8734	49.1212	-69.3441	63.7371	38.6809	-83.106	95.3518	34.8485	-36.7044	71.3978	21.9274	-34.6914	65.207	22.5497	-6.47704	102.322	17.0226	-26.5959	78.4518	12.7304	-19.2396	72.9175	22.6017	3.69144	120.118	50.6317	3.33366	127.585	48.4544	25.6517	112.394	69.2686	18.6315	
10	0.0833333	87.2149	72.7504	24.2256	60.7929	76.0845	8.95349	45.3426	78.5606	-5.9513	33.2893	81.5972	-19.7938	90.5221	73.1703	-38.5433	78.5551	71.7818	-63.5786	72.9026	64.5043	-81.0899	92.7393	50.1186	-47.9479	77.7513	40.9907	-65.8637	54.6538	30.9653	-76.6721	86.0271	26.6289	-35.1395	62.8016	22.32	-24.7189	63.8055	30.3901	2.55267	91.5632	11.765	-20.2362	70.4147	16.8533	-8.81463	75.9722	32.405	14.3942	121.783	43.1585	2.68557	130.243	43.846	27.6106	116.169	64.7047	15.3983	
11	0.0916667	93.9939	77.0686	24.6722	72.4117	78.9612	6.6338	55.1947	87.3992	-13.232	42.6539	95.7617	-24.342	92.3495	69.3251	-44.5077	82.3206	64.745	-65.7858	71.4176	60.9496	-85.4849	90.1937	46.7846	-45.7583	67.6353	37.0235	-63.1172	41.789	33.005	-68.895	79.456	25.5441	-31.8139	56.9867	26.4783	-17.9371	64.7452	39.7908	7.60009	79.6623	16.3708	-17.1129	64.0612	23.7917	0.478938	77.2136	36.2719	17.9635	119.807	34.4415	-3.64031	128.765	38.6597	24.286	118.648	64.0629	7.40213	
12	0.1	99.7833	81.4408	20.3467	78.8072	84.7003	3.34875	65.517	92.2954	-11.97	55.8212	102.022	-24.5523	93.8398	65.9635	-48.8989	82.6794	60.5802	-66.3656	73.0974	60.9468	-82.8822	81.8859	43.995	-48.1058	55.3969	36.1393	-55.4833	30.3384	36.3767	-53.0538	72.0374	28.209	-28.3595	51.8307	33.2792	-9.41562	63.9406	48.0425	10.5442	72.747	16.0077	-13.1235	60.5555	30.3347	2.09925	76.9505	42.8575	17.4423	118.69	32.4958	-3.08652	126.521	35.6013	23.0615	124.197	60.765	7.77422	
13	0.108333	103.682	76.5054	16.6799	83.4895	86.9045	0.919341	73.6874	93.7249	-16.6197	65.5542	105.428	-26.0396	92.879	58.6644	-45.002	81.1161	55.1155	-64.9398	69.8149	53.477	-86.6206	78.0068	38.1886	-40.3159	49.4564	39.4248	-45.4166	20.6536	45.4213	-31.7813	65.2699	26.9169	-23.5067	50.7088	41.6578	-9.37886	60.7586	49.6207	13.1488	69.6236	14.8472	-8.73968	57.4137	33.5037	7.32489	72.9205	45.4236	17.4696	115.008	29.4671	1.14605	124.477	31.9794	22.4537	124.662	57.2838	6.71735	
